<svg xmlns="http://www.w3.org/2000/svg" xmlns:xlink="http://www.w3.org/1999/xlink" width="243" height="55.875" viewBox="0 0 243 55.875">
  <defs>
    <clipPath id="clip-path">
      <rect id="Rectangle_2" data-name="Rectangle 2" width="243" height="55.875" fill="none"/>
    </clipPath>
  </defs>
  <g id="Group_5479" data-name="Group 5479" transform="translate(0 0)">
    <g id="Group_1" data-name="Group 1" transform="translate(0 0)" clip-path="url(#clip-path)">
      <path id="Path_1" data-name="Path 1" d="M60.208,3.78a1.947,1.947,0,0,0-.6-1.421,2.018,2.018,0,0,0-1.476-.6H56.108v37.72h2.024A2.051,2.051,0,0,0,60.208,37.4ZM58.132.119a3.608,3.608,0,0,1,2.649,1.065,3.529,3.529,0,0,1,1.065,2.6V37.4a3.64,3.64,0,0,1-3.715,3.718H55.289a.778.778,0,0,1-.572-.246.787.787,0,0,1-.248-.574V.937a.789.789,0,0,1,.248-.574.79.79,0,0,1,.572-.244Z" transform="translate(45.398 0.098)" fill="#feef2f"/>
      <path id="Path_2" data-name="Path 2" d="M68.707,19.828V3.866A1.968,1.968,0,0,0,66.684,1.84a1.989,1.989,0,0,0-1.421.578,1.917,1.917,0,0,0-.6,1.448V19.828ZM70.4,7.638V40.327c0,.545-.292.821-.876.821a.848.848,0,0,1-.572-.218.768.768,0,0,1-.246-.6v-18.8H64.66v18.8a.779.779,0,0,1-.244.6.857.857,0,0,1-.576.218c-.583,0-.875-.277-.875-.821V3.866a3.581,3.581,0,0,1,1.093-2.624,3.692,3.692,0,0,1,5.247,0A3.569,3.569,0,0,1,70.4,3.866Z" transform="translate(52.48 0.122)" fill="#feef2f"/>
      <path id="Path_3" data-name="Path 3" d="M79.373.363a.794.794,0,0,1,.246.572.774.774,0,0,1-.246.607.855.855,0,0,1-.572.216H76.01V40.3a.791.791,0,0,1-.248.576.84.84,0,0,1-.627.246.782.782,0,0,1-.574-.246.791.791,0,0,1-.248-.576V1.758h-2.9A.726.726,0,0,1,70.6.935a.845.845,0,0,1,.218-.572.772.772,0,0,1,.6-.244H78.8a.793.793,0,0,1,.572.244" transform="translate(58.841 0.098)" fill="#feef2f"/>
      <path id="Path_4" data-name="Path 4" d="M84.745,19.828V3.866a1.965,1.965,0,0,0-2.02-2.026,1.989,1.989,0,0,0-1.421.578,1.917,1.917,0,0,0-.6,1.448V19.828Zm1.7-12.191V40.327c0,.545-.292.821-.876.821a.848.848,0,0,1-.572-.218.769.769,0,0,1-.248-.6v-18.8H80.7v18.8a.779.779,0,0,1-.244.6.857.857,0,0,1-.576.218c-.583,0-.875-.277-.875-.821V3.866A3.581,3.581,0,0,1,80.1,1.243a3.692,3.692,0,0,1,5.247,0,3.569,3.569,0,0,1,1.095,2.624Z" transform="translate(65.849 0.122)" fill="#feef2f"/>
      <path id="Path_5" data-name="Path 5" d="M93.933,41.12a.827.827,0,0,1-.572-.218.7.7,0,0,1-.248-.548L90.217,1a.8.8,0,0,1,.766-.876.7.7,0,0,1,.627.191,1.042,1.042,0,0,1,.3.576l2.022,27.933L95.956.889a1.03,1.03,0,0,1,.3-.576A.628.628,0,0,1,96.83.122c.581.075.838.365.766.876L94.753,40.354a.77.77,0,0,1-.82.766" transform="translate(75.193 0.093)" fill="#c3ac86"/>
      <path id="Path_6" data-name="Path 6" d="M103.8,19.828V3.866a1.965,1.965,0,0,0-2.021-2.026,1.99,1.99,0,0,0-1.423.578,1.917,1.917,0,0,0-.6,1.448V19.828Zm1.7-12.191V40.327c0,.545-.293.821-.878.821a.848.848,0,0,1-.572-.218.774.774,0,0,1-.246-.6v-18.8H99.75v18.8a.779.779,0,0,1-.244.6.849.849,0,0,1-.574.218c-.583,0-.875-.277-.875-.821V3.866a3.574,3.574,0,0,1,1.093-2.624,3.69,3.69,0,0,1,5.246,0,3.571,3.571,0,0,1,1.1,2.624Z" transform="translate(81.728 0.122)" fill="#c3ac86"/>
      <path id="Path_7" data-name="Path 7" d="M113.709,41.116h-2.9a3.525,3.525,0,0,1-2.6-1.067,3.584,3.584,0,0,1-1.065-2.649V.938A.784.784,0,0,1,107.4.364a.781.781,0,0,1,.57-.246.793.793,0,0,1,.576.246.789.789,0,0,1,.246.574V37.4a2,2,0,0,0,.6,1.476,1.928,1.928,0,0,0,1.421.6h2.9a.837.837,0,0,1,.572.22.763.763,0,0,1,.248.6.843.843,0,0,1-.82.82" transform="translate(89.306 0.097)" fill="#c3ac86"/>
      <path id="Path_8" data-name="Path 8" d="M121.343,41.116h-2.9a3.531,3.531,0,0,1-2.6-1.067,3.591,3.591,0,0,1-1.065-2.649V.938a.784.784,0,0,1,.248-.574A.782.782,0,0,1,115.6.118a.793.793,0,0,1,.576.246.789.789,0,0,1,.246.574V37.4a2,2,0,0,0,.6,1.476,1.934,1.934,0,0,0,1.421.6h2.9a.841.841,0,0,1,.572.22.763.763,0,0,1,.248.6.843.843,0,0,1-.82.82" transform="translate(95.668 0.097)" fill="#c3ac86"/>
      <path id="Path_9" data-name="Path 9" d="M123.516,41.116a.778.778,0,0,1-.572-.246.794.794,0,0,1-.244-.574V.938a.794.794,0,0,1,.244-.574.785.785,0,0,1,.572-.246.861.861,0,0,1,.631.246.789.789,0,0,1,.246.574V40.3a.789.789,0,0,1-.246.574.854.854,0,0,1-.631.246" transform="translate(102.266 0.097)" fill="#c3ac86"/>
      <path id="Path_10" data-name="Path 10" d="M132.174,41.116a3.534,3.534,0,0,1-2.6-1.067,3.6,3.6,0,0,1-1.065-2.649.821.821,0,0,1,1.641,0,2,2,0,0,0,.6,1.476,2.018,2.018,0,0,0,2.871,0,2.164,2.164,0,0,0,.627-1.368L128.511,3.946V3.781a3.533,3.533,0,0,1,1.065-2.6,3.541,3.541,0,0,1,2.6-1.067,3.592,3.592,0,0,1,2.649,1.067,3.514,3.514,0,0,1,1.067,2.6.854.854,0,0,1-.246.629.794.794,0,0,1-.574.244c-.548,0-.82-.29-.82-.873a1.958,1.958,0,0,0-.6-1.423,2.031,2.031,0,0,0-1.478-.6,1.9,1.9,0,0,0-1.393.578,2.1,2.1,0,0,0-.629,1.392l5.739,33.563V37.4a3.646,3.646,0,0,1-3.716,3.716" transform="translate(107.109 0.097)" fill="#c3ac86"/>
      <path id="Path_11" data-name="Path 11" d="M82.059,33.3h.755V27.874h.018L84.547,33.3h.579l1.784-5.427h.018V33.3h.755V27.01H86.5l-1.615,5h-.018l-1.579-5H82.059ZM75.7,30.978l.992-3.139h.018l.964,3.139ZM76.3,27.01,74.188,33.3h.794l.5-1.639h2.4l.5,1.639h.831L77.162,27.01ZM68.561,33.3h3.047v-.682H69.353V30.38h2.039V29.7H69.353v-2h2.136V27.01H68.561ZM62.6,27.659h.633c.693,0,1.153.334,1.153,1.036a1.063,1.063,0,0,1-1.17,1.113H62.6ZM61.808,33.3H62.6V30.451h.359a.889.889,0,0,1,1,.722l.721,2.127h.856l-.882-2.525a.807.807,0,0,0-.684-.611v-.018a1.434,1.434,0,0,0,1.239-1.5,1.622,1.622,0,0,0-.466-1.2,1.763,1.763,0,0,0-1.326-.431H61.808Zm-6.547-5.609h.477c1.551,0,2.112,1.049,2.112,2.365,0,1.615-.722,2.561-2.112,2.561h-.477ZM54.469,33.3h.981a2.908,2.908,0,0,0,3.229-3.243,3,3,0,0,0-1.162-2.6,2.737,2.737,0,0,0-1.678-.447h-1.37Z" transform="translate(45.398 22.511)" fill="#fff"/>
      <path id="Path_12" data-name="Path 12" d="M112.233,33.33h3.047v-.682h-2.255V30.409h2.039v-.684h-2.039v-2h2.14v-.682h-2.932Zm-5.959-5.642h.629c.7,0,1.155.334,1.155,1.036a1.063,1.063,0,0,1-1.172,1.113h-.612Zm-.794,5.642h.794V30.481h.361a.89.89,0,0,1,1,.722l.721,2.127h.856l-.884-2.525a.807.807,0,0,0-.684-.611v-.018a1.439,1.439,0,0,0,1.243-1.5,1.625,1.625,0,0,0-.469-1.2,1.758,1.758,0,0,0-1.326-.431H105.48Zm-4.255,0h.792V27.039h-.792Zm-3.482-6.148a3.175,3.175,0,0,0-1.135-.207,1.577,1.577,0,0,0-1.749,1.577c0,.814.253,1.2,1.388,1.888.849.512.974.79.974,1.278a1.023,1.023,0,0,1-1.117.992,2.577,2.577,0,0,1-1.2-.405v.82a3.082,3.082,0,0,0,1.316.268,1.683,1.683,0,0,0,1.83-1.78c0-.724-.326-1.272-1.3-1.833-.9-.523-1.063-.774-1.063-1.179a.925.925,0,0,1,.985-.942,2.114,2.114,0,0,1,1.071.292ZM88.9,33.33h3.045v-.682H89.692V30.409h2.037v-.684H89.692v-2H91.83v-.682H88.9Zm-6.547-5.609h.477c1.551,0,2.11,1.049,2.11,2.365,0,1.615-.721,2.561-2.11,2.561h-.477Zm-.792,5.609h.981a2.909,2.909,0,0,0,3.229-3.243,3,3,0,0,0-1.162-2.6,2.741,2.741,0,0,0-1.678-.447h-1.37Z" transform="translate(67.978 22.482)" fill="#fff"/>
      <path id="Path_13" data-name="Path 13" d="M149.714,27.688h.449c.814,0,1.3.339,1.3,1.206,0,.706-.35,1.157-1.32,1.157h-.431Zm-.794,5.642h.794V30.7h.532c1.335,0,2.046-.647,2.046-1.876a1.75,1.75,0,0,0-.5-1.3,1.808,1.808,0,0,0-1.364-.488H148.92ZM141.9,30.246c0-1.936.706-2.622,1.535-2.622,1.062,0,1.459,1.228,1.459,2.5,0,1.94-.7,2.626-1.533,2.626-1.063,0-1.461-1.225-1.461-2.5m-.829,0c0,1.953.891,3.146,2.29,3.146,1.489,0,2.361-1.1,2.361-3.271,0-1.947-.891-3.146-2.288-3.146-1.489,0-2.363,1.1-2.363,3.271m-5.48,3.084h2.855v-.682h-2.064V27.039h-.79Zm-6.248,0h3.045v-.682h-2.255V30.409h2.041v-.684h-2.041v-2h2.138v-.682h-2.928Zm-5.62,0h.794l1.975-6.291h-.8l-1.538,5.128h-.02l-1.459-5.128h-.865Zm-7.547,0h3.049v-.682h-2.253V30.409H119v-.684h-2.035v-2H119.1v-.682h-2.93Zm-6.545-5.609h.477c1.551,0,2.11,1.049,2.11,2.365,0,1.615-.722,2.561-2.11,2.561h-.477Zm-.794,5.609h.983a2.911,2.911,0,0,0,3.231-3.243,2.992,2.992,0,0,0-1.166-2.6,2.725,2.725,0,0,0-1.674-.447h-1.373Z" transform="translate(90.708 22.482)" fill="#fff"/>
      <path id="Path_14" data-name="Path 14" d="M77.93,28.365h-.838a.133.133,0,0,0-.136.134v.84a.134.134,0,0,0,.136.134h.838a.135.135,0,0,0,.134-.134V28.5a.133.133,0,0,0-.134-.134" transform="translate(64.14 23.64)" fill="#feef2f"/>
      <path id="Path_15" data-name="Path 15" d="M104.91,28.365h-.836a.133.133,0,0,0-.136.134v.84a.134.134,0,0,0,.136.134h.836a.133.133,0,0,0,.134-.134V28.5a.132.132,0,0,0-.134-.134" transform="translate(86.629 23.64)" fill="#feef2f"/>
      <path id="Path_16" data-name="Path 16" d="M10.651,7.911H1.48A1.482,1.482,0,0,0,0,9.391v9.173a1.482,1.482,0,0,0,1.48,1.478h9.171a1.481,1.481,0,0,0,1.48-1.478V9.391a1.481,1.481,0,0,0-1.48-1.48" transform="translate(0 6.593)" fill="#84d860"/>
      <path id="Path_17" data-name="Path 17" d="M31.73,8.643H40.9a.747.747,0,0,1,.746.748v9.173a.747.747,0,0,1-.746.746H31.73a.747.747,0,0,1-.746-.746V9.391a.747.747,0,0,1,.746-.748M40.9,7.911H31.73a1.481,1.481,0,0,0-1.478,1.48v9.173a1.48,1.48,0,0,0,1.478,1.478H40.9a1.48,1.48,0,0,0,1.478-1.478V9.391A1.481,1.481,0,0,0,40.9,7.911" transform="translate(25.214 6.593)" fill="#feef2f"/>
      <path id="Path_18" data-name="Path 18" d="M10.651,27.283H1.48a.746.746,0,0,1-.746-.744V17.364a.747.747,0,0,1,.746-.748h9.171a.748.748,0,0,1,.748.748v9.175a.747.747,0,0,1-.748.744m0-11.4H1.48A1.481,1.481,0,0,0,0,17.364v9.175a1.48,1.48,0,0,0,1.48,1.474h9.171a1.479,1.479,0,0,0,1.48-1.474V17.364a1.48,1.48,0,0,0-1.48-1.478" transform="translate(0 13.24)" fill="#1db682"/>
      <path id="Path_19" data-name="Path 19" d="M18.961,17.364v9.175a.748.748,0,0,1-.746.744H9.044a.746.746,0,0,1-.748-.744V17.364a.746.746,0,0,1,.748-.748h9.171a.748.748,0,0,1,.746.748m-.746-1.478H9.044a1.48,1.48,0,0,0-1.48,1.478v9.175a1.479,1.479,0,0,0,1.48,1.474h9.171a1.48,1.48,0,0,0,1.478-1.474V17.364a1.48,1.48,0,0,0-1.478-1.478" transform="translate(6.304 13.24)" fill="#feef2f"/>
      <path id="Path_20" data-name="Path 20" d="M33.339,15.886H24.168a1.481,1.481,0,0,0-1.48,1.478v9.175a1.48,1.48,0,0,0,1.48,1.476h9.171a1.482,1.482,0,0,0,1.48-1.476V17.364a1.482,1.482,0,0,0-1.48-1.478" transform="translate(18.91 13.24)" fill="#84d860"/>
      <path id="Path_21" data-name="Path 21" d="M40.9,15.886H31.73a1.479,1.479,0,0,0-1.478,1.478v9.175a1.479,1.479,0,0,0,1.478,1.476H40.9a1.479,1.479,0,0,0,1.478-1.476V17.364A1.479,1.479,0,0,0,40.9,15.886" transform="translate(25.214 13.24)" fill="#84d860"/>
      <path id="Path_22" data-name="Path 22" d="M47.363,0H38.19a1.481,1.481,0,0,0-1.478,1.48v9.171a1.48,1.48,0,0,0,1.478,1.478h9.173a1.482,1.482,0,0,0,1.48-1.478V1.48A1.482,1.482,0,0,0,47.363,0" transform="translate(30.598 -0.001)" fill="#84d860"/>
      <path id="Path_23" data-name="Path 23" d="M10.651,35.259H1.48a.747.747,0,0,1-.746-.748V25.339a.747.747,0,0,1,.746-.748h9.171a.748.748,0,0,1,.748.748v9.173a.748.748,0,0,1-.748.748m0-11.4H1.48A1.482,1.482,0,0,0,0,25.339v9.173a1.481,1.481,0,0,0,1.48,1.478h9.171a1.48,1.48,0,0,0,1.48-1.478V25.339a1.481,1.481,0,0,0-1.48-1.48" transform="translate(0 19.885)" fill="#feef2f"/>
      <path id="Path_24" data-name="Path 24" d="M18.215,23.859H9.044a1.481,1.481,0,0,0-1.48,1.48v9.173a1.48,1.48,0,0,0,1.48,1.478h9.171a1.48,1.48,0,0,0,1.478-1.478V25.339a1.482,1.482,0,0,0-1.478-1.48" transform="translate(6.304 19.885)" fill="#84d860"/>
      <path id="Path_25" data-name="Path 25" d="M26.523,25.339v9.173a.747.747,0,0,1-.746.748H16.606a.748.748,0,0,1-.748-.748V25.339a.748.748,0,0,1,.748-.748h9.171a.747.747,0,0,1,.746.748m-.746-1.48H16.606a1.481,1.481,0,0,0-1.48,1.48v9.173a1.48,1.48,0,0,0,1.48,1.478h9.171a1.481,1.481,0,0,0,1.48-1.478V25.339a1.482,1.482,0,0,0-1.48-1.48" transform="translate(12.607 19.885)" fill="#1db682"/>
      <path id="Path_26" data-name="Path 26" d="M23.421,34.51V25.337a.746.746,0,0,1,.748-.748h9.169a.747.747,0,0,1,.746.748V34.51a.747.747,0,0,1-.746.748H24.169a.746.746,0,0,1-.748-.748m.748,1.48h9.169a1.484,1.484,0,0,0,1.481-1.48V25.337a1.482,1.482,0,0,0-1.481-1.478H24.169a1.482,1.482,0,0,0-1.481,1.478V34.51a1.484,1.484,0,0,0,1.481,1.48" transform="translate(18.91 19.885)" fill="#feef2f"/>
      <path id="Path_27" data-name="Path 27" d="M31.73,24.591H40.9a.747.747,0,0,1,.746.748v9.173a.747.747,0,0,1-.746.748H31.73a.747.747,0,0,1-.746-.748V25.339a.747.747,0,0,1,.746-.748m9.173-.732H31.73a1.481,1.481,0,0,0-1.478,1.48v9.173a1.479,1.479,0,0,0,1.478,1.478H40.9a1.479,1.479,0,0,0,1.478-1.478V25.339a1.481,1.481,0,0,0-1.478-1.48" transform="translate(25.214 19.885)" fill="#1db682"/>
      <path id="Path_28" data-name="Path 28" d="M8.829,16.924H1.566a.528.528,0,0,0-.526.528v7.264a.528.528,0,0,0,.526.528H8.829a.528.528,0,0,0,.528-.528V17.452a.528.528,0,0,0-.528-.528" transform="translate(0.867 14.105)" fill="#1db682"/>
      <path id="Path_29" data-name="Path 29" d="M23.953,24.9H16.692a.526.526,0,0,0-.526.526v7.264a.527.527,0,0,0,.526.528h7.261a.528.528,0,0,0,.528-.528V25.425a.528.528,0,0,0-.528-.526" transform="translate(13.474 20.752)" fill="#1db682"/>
      <path id="Rectangle_1" data-name="Rectangle 1" d="M.288,0H8.03a.288.288,0,0,1,.288.288V8.03a.287.287,0,0,1-.287.287H.288A.288.288,0,0,1,0,8.029V.288A.288.288,0,0,1,.288,0Z" transform="translate(57.37 45.651)" fill="#1db682"/>
    </g>
  </g>
</svg>
